
<svg version="1.0" xmlns="http://www.w3.org/2000/svg"
 width="256.000000pt" height="256.000000pt" viewBox="0 0 256.000000 256.000000"
 preserveAspectRatio="xMidYMid meet">

<g transform="translate(0.000000,256.000000) scale(0.100000,-0.100000)"
fill="red" stroke="none">

<path d="M1655 2127 c-23 -6 -136 -12 -271 -13 -253 -2 -274 -5 -365 -62 -106
-67 -156 -188 -113 -278 25 -52 52 -61 209 -68 189 -8 483 -8 522 0 25 5 33 2
43 -15 24 -45 -21 -113 -118 -181 -70 -50 -112 -63 -112 -35 0 13 -42 15 -315
15 l-315 0 -16 24 c-8 14 -23 46 -32 72 -17 47 -44 75 -58 61 -4 -4 2 -15 15
-23 31 -22 24 -55 -17 -76 -19 -9 -29 -19 -23 -23 6 -3 11 -14 11 -23 0 -10
21 -39 48 -64 42 -42 54 -48 113 -57 76 -13 277 -16 544 -10 l190 4 75 36
c105 50 140 87 174 184 28 80 28 80 10 115 -11 19 -36 44 -58 56 -69 39 -144
47 -441 49 -255 2 -355 8 -355 22 0 18 66 116 95 142 59 51 108 60 370 62 130
1 239 -1 242 -5 4 -3 -4 -16 -16 -27 -12 -11 -21 -28 -19 -37 7 -37 144 -83
203 -68 33 8 32 37 -4 103 -18 32 -27 61 -24 76 4 20 -1 26 -27 35 -50 18
-121 22 -165 9z"/>
<path d="M342 1673 c-11 -26 -23 -66 -27 -88 -4 -22 -11 -55 -17 -72 -6 -22
-6 -44 0 -65 6 -18 15 -55 21 -83 35 -153 153 -282 307 -335 l54 -19 0 45 c0
53 -17 97 -54 142 -44 51 -13 37 53 -24 37 -34 71 -77 88 -112 24 -50 28 -69
28 -147 0 -49 -3 -110 -8 -135 l-7 -45 62 -34 c60 -33 207 -165 196 -176 -2
-3 -25 2 -49 11 -49 17 -179 44 -212 44 -12 0 19 -20 69 -44 50 -24 127 -67
170 -96 88 -59 209 -177 239 -233 11 -20 22 -37 25 -37 3 0 14 17 25 37 54
101 240 249 417 333 47 22 74 40 61 40 -33 0 -163 -27 -212 -44 -24 -9 -47
-14 -49 -11 -11 11 135 141 195 175 l63 35 -8 45 c-4 25 -7 86 -7 135 0 78 4
97 28 147 17 35 51 78 88 112 69 64 93 73 51 19 -35 -45 -52 -92 -52 -144 l0
-38 32 10 c147 42 272 163 317 305 35 111 44 163 33 192 -6 15 -13 45 -17 67
-4 22 -16 62 -28 88 l-20 49 -22 -59 c-55 -153 -132 -220 -430 -371 -208 -106
-297 -198 -329 -342 -25 -107 -21 -124 13 -64 30 51 123 144 145 144 8 0 10
-24 8 -78 -2 -43 1 -95 6 -115 l10 -37 -68 -45 c-79 -52 -164 -141 -212 -219
-18 -31 -35 -55 -38 -55 -3 0 -20 24 -38 55 -47 76 -132 166 -205 215 l-62 41
0 119 c0 84 3 119 12 119 22 0 124 -103 148 -149 30 -57 33 -34 9 69 -20 89
-75 175 -150 234 -32 25 -128 82 -214 127 -192 101 -245 136 -304 199 -45 48
-96 138 -96 170 0 8 -4 21 -9 28 -5 9 -14 -1 -29 -35z"/>
</g>
</svg>
